<svg xmlns="http://www.w3.org/2000/svg" version="1.1" xmlns:xlink="http://www.w3.org/1999/xlink" xmlns:svgjs="http://svgjs.com/svgjs" width="1440" height="560" preserveAspectRatio="none" viewBox="0 0 1440 560"><g mask="url(&quot;#SvgjsMask1001&quot;)" fill="none"><path d="M41.18 -67.6L106.13 -30.1L106.13 44.9L41.18 82.4L-23.77 44.9L-23.77 -30.1zM41.18 382.4L106.13 419.9L106.13 494.9L41.18 532.4L-23.77 494.9L-23.77 419.9zM495.86 44.9L560.81 82.4L560.81 157.4L495.86 194.9L430.9 157.4L430.9 82.4zM430.9 382.4L495.86 419.9L495.86 494.9L430.9 532.4L365.95 494.9L365.95 419.9zM495.86 494.9L560.81 532.4L560.81 607.4L495.86 644.9L430.9 607.4L430.9 532.4zM560.81 382.4L625.76 419.9L625.76 494.9L560.81 532.4L495.86 494.9L495.86 419.9zM755.67 44.9L820.63 82.4L820.63 157.4L755.67 194.9L690.72 157.4L690.72 82.4zM690.72 157.4L755.67 194.9L755.67 269.9L690.72 307.4L625.76 269.9L625.76 194.9zM690.72 382.4L755.67 419.9L755.67 494.9L690.72 532.4L625.76 494.9L625.76 419.9zM755.67 494.9L820.63 532.4L820.63 607.4L755.67 644.9L690.72 607.4L690.72 532.4zM820.62 -67.6L885.58 -30.1L885.58 44.9L820.62 82.4L755.67 44.9L755.67 -30.1zM820.62 382.4L885.58 419.9L885.58 494.9L820.62 532.4L755.67 494.9L755.67 419.9zM1015.49 494.9L1080.44 532.4L1080.44 607.4L1015.49 644.9L950.53 607.4L950.53 532.4zM1145.39 44.9L1210.35 82.4L1210.35 157.4L1145.39 194.9L1080.44 157.4L1080.44 82.4zM1145.39 269.9L1210.35 307.4L1210.35 382.4L1145.39 419.9L1080.44 382.4L1080.44 307.4zM1145.39 494.9L1210.35 532.4L1210.35 607.4L1145.39 644.9L1080.44 607.4L1080.44 532.4zM1275.3 44.9L1340.25 82.4L1340.25 157.4L1275.3 194.9L1210.35 157.4L1210.35 82.4zM1210.35 157.4L1275.3 194.9L1275.3 269.9L1210.35 307.4L1145.39 269.9L1145.39 194.9zM1210.35 382.4L1275.3 419.9L1275.3 494.9L1210.35 532.4L1145.39 494.9L1145.39 419.9zM1340.26 382.4L1405.21 419.9L1405.21 494.9L1340.26 532.4L1275.3 494.9L1275.3 419.9zM1470.16 -67.6L1535.12 -30.1L1535.12 44.9L1470.16 82.4L1405.21 44.9L1405.21 -30.1zM1535.12 44.9L1600.07 82.4L1600.07 157.4L1535.12 194.9L1470.16 157.4L1470.16 82.4zM1535.12 494.9L1600.07 532.4L1600.07 607.4L1535.12 644.9L1470.16 607.4L1470.16 532.4z" stroke="#03305d" stroke-width="2"></path><path d="M33.68 -67.6 a7.5 7.5 0 1 0 15 0 a7.5 7.5 0 1 0 -15 0zM98.63 -30.1 a7.5 7.5 0 1 0 15 0 a7.5 7.5 0 1 0 -15 0zM98.63 44.9 a7.5 7.5 0 1 0 15 0 a7.5 7.5 0 1 0 -15 0zM33.68 82.4 a7.5 7.5 0 1 0 15 0 a7.5 7.5 0 1 0 -15 0zM-31.27 44.9 a7.5 7.5 0 1 0 15 0 a7.5 7.5 0 1 0 -15 0zM-31.27 -30.1 a7.5 7.5 0 1 0 15 0 a7.5 7.5 0 1 0 -15 0zM33.68 382.4 a7.5 7.5 0 1 0 15 0 a7.5 7.5 0 1 0 -15 0zM98.63 419.9 a7.5 7.5 0 1 0 15 0 a7.5 7.5 0 1 0 -15 0zM98.63 494.9 a7.5 7.5 0 1 0 15 0 a7.5 7.5 0 1 0 -15 0zM33.68 532.4 a7.5 7.5 0 1 0 15 0 a7.5 7.5 0 1 0 -15 0zM-31.27 494.9 a7.5 7.5 0 1 0 15 0 a7.5 7.5 0 1 0 -15 0zM-31.27 419.9 a7.5 7.5 0 1 0 15 0 a7.5 7.5 0 1 0 -15 0zM488.36 44.9 a7.5 7.5 0 1 0 15 0 a7.5 7.5 0 1 0 -15 0zM553.31 82.4 a7.5 7.5 0 1 0 15 0 a7.5 7.5 0 1 0 -15 0zM553.31 157.4 a7.5 7.5 0 1 0 15 0 a7.5 7.5 0 1 0 -15 0zM488.36 194.9 a7.5 7.5 0 1 0 15 0 a7.5 7.5 0 1 0 -15 0zM423.4 157.4 a7.5 7.5 0 1 0 15 0 a7.5 7.5 0 1 0 -15 0zM423.4 82.4 a7.5 7.5 0 1 0 15 0 a7.5 7.5 0 1 0 -15 0zM423.4 382.4 a7.5 7.5 0 1 0 15 0 a7.5 7.5 0 1 0 -15 0zM488.36 419.9 a7.5 7.5 0 1 0 15 0 a7.5 7.5 0 1 0 -15 0zM488.36 494.9 a7.5 7.5 0 1 0 15 0 a7.5 7.5 0 1 0 -15 0zM423.4 532.4 a7.5 7.5 0 1 0 15 0 a7.5 7.5 0 1 0 -15 0zM358.45 494.9 a7.5 7.5 0 1 0 15 0 a7.5 7.5 0 1 0 -15 0zM358.45 419.9 a7.5 7.5 0 1 0 15 0 a7.5 7.5 0 1 0 -15 0zM553.31 532.4 a7.5 7.5 0 1 0 15 0 a7.5 7.5 0 1 0 -15 0zM553.31 607.4 a7.5 7.5 0 1 0 15 0 a7.5 7.5 0 1 0 -15 0zM488.36 644.9 a7.5 7.5 0 1 0 15 0 a7.5 7.5 0 1 0 -15 0zM423.4 607.4 a7.5 7.5 0 1 0 15 0 a7.5 7.5 0 1 0 -15 0zM553.31 382.4 a7.5 7.5 0 1 0 15 0 a7.5 7.5 0 1 0 -15 0zM618.26 419.9 a7.5 7.5 0 1 0 15 0 a7.5 7.5 0 1 0 -15 0zM618.26 494.9 a7.5 7.5 0 1 0 15 0 a7.5 7.5 0 1 0 -15 0zM748.17 44.9 a7.5 7.5 0 1 0 15 0 a7.5 7.5 0 1 0 -15 0zM813.13 82.4 a7.5 7.5 0 1 0 15 0 a7.5 7.5 0 1 0 -15 0zM813.13 157.4 a7.5 7.5 0 1 0 15 0 a7.5 7.5 0 1 0 -15 0zM748.17 194.9 a7.5 7.5 0 1 0 15 0 a7.5 7.5 0 1 0 -15 0zM683.22 157.4 a7.5 7.5 0 1 0 15 0 a7.5 7.5 0 1 0 -15 0zM683.22 82.4 a7.5 7.5 0 1 0 15 0 a7.5 7.5 0 1 0 -15 0zM748.17 269.9 a7.5 7.5 0 1 0 15 0 a7.5 7.5 0 1 0 -15 0zM683.22 307.4 a7.5 7.5 0 1 0 15 0 a7.5 7.5 0 1 0 -15 0zM618.26 269.9 a7.5 7.5 0 1 0 15 0 a7.5 7.5 0 1 0 -15 0zM618.26 194.9 a7.5 7.5 0 1 0 15 0 a7.5 7.5 0 1 0 -15 0zM683.22 382.4 a7.5 7.5 0 1 0 15 0 a7.5 7.5 0 1 0 -15 0zM748.17 419.9 a7.5 7.5 0 1 0 15 0 a7.5 7.5 0 1 0 -15 0zM748.17 494.9 a7.5 7.5 0 1 0 15 0 a7.5 7.5 0 1 0 -15 0zM683.22 532.4 a7.5 7.5 0 1 0 15 0 a7.5 7.5 0 1 0 -15 0zM813.13 532.4 a7.5 7.5 0 1 0 15 0 a7.5 7.5 0 1 0 -15 0zM813.13 607.4 a7.5 7.5 0 1 0 15 0 a7.5 7.5 0 1 0 -15 0zM748.17 644.9 a7.5 7.5 0 1 0 15 0 a7.5 7.5 0 1 0 -15 0zM683.22 607.4 a7.5 7.5 0 1 0 15 0 a7.5 7.5 0 1 0 -15 0zM813.12 -67.6 a7.5 7.5 0 1 0 15 0 a7.5 7.5 0 1 0 -15 0zM878.08 -30.1 a7.5 7.5 0 1 0 15 0 a7.5 7.5 0 1 0 -15 0zM878.08 44.9 a7.5 7.5 0 1 0 15 0 a7.5 7.5 0 1 0 -15 0zM813.12 82.4 a7.5 7.5 0 1 0 15 0 a7.5 7.5 0 1 0 -15 0zM748.17 -30.1 a7.5 7.5 0 1 0 15 0 a7.5 7.5 0 1 0 -15 0zM813.12 382.4 a7.5 7.5 0 1 0 15 0 a7.5 7.5 0 1 0 -15 0zM878.08 419.9 a7.5 7.5 0 1 0 15 0 a7.5 7.5 0 1 0 -15 0zM878.08 494.9 a7.5 7.5 0 1 0 15 0 a7.5 7.5 0 1 0 -15 0zM813.12 532.4 a7.5 7.5 0 1 0 15 0 a7.5 7.5 0 1 0 -15 0zM1007.99 494.9 a7.5 7.5 0 1 0 15 0 a7.5 7.5 0 1 0 -15 0zM1072.94 532.4 a7.5 7.5 0 1 0 15 0 a7.5 7.5 0 1 0 -15 0zM1072.94 607.4 a7.5 7.5 0 1 0 15 0 a7.5 7.5 0 1 0 -15 0zM1007.99 644.9 a7.5 7.5 0 1 0 15 0 a7.5 7.5 0 1 0 -15 0zM943.03 607.4 a7.5 7.5 0 1 0 15 0 a7.5 7.5 0 1 0 -15 0zM943.03 532.4 a7.5 7.5 0 1 0 15 0 a7.5 7.5 0 1 0 -15 0zM1137.89 44.9 a7.5 7.5 0 1 0 15 0 a7.5 7.5 0 1 0 -15 0zM1202.85 82.4 a7.5 7.5 0 1 0 15 0 a7.5 7.5 0 1 0 -15 0zM1202.85 157.4 a7.5 7.5 0 1 0 15 0 a7.5 7.5 0 1 0 -15 0zM1137.89 194.9 a7.5 7.5 0 1 0 15 0 a7.5 7.5 0 1 0 -15 0zM1072.94 157.4 a7.5 7.5 0 1 0 15 0 a7.5 7.5 0 1 0 -15 0zM1072.94 82.4 a7.5 7.5 0 1 0 15 0 a7.5 7.5 0 1 0 -15 0zM1137.89 269.9 a7.5 7.5 0 1 0 15 0 a7.5 7.5 0 1 0 -15 0zM1202.85 307.4 a7.5 7.5 0 1 0 15 0 a7.5 7.5 0 1 0 -15 0zM1202.85 382.4 a7.5 7.5 0 1 0 15 0 a7.5 7.5 0 1 0 -15 0zM1137.89 419.9 a7.5 7.5 0 1 0 15 0 a7.5 7.5 0 1 0 -15 0zM1072.94 382.4 a7.5 7.5 0 1 0 15 0 a7.5 7.5 0 1 0 -15 0zM1072.94 307.4 a7.5 7.5 0 1 0 15 0 a7.5 7.5 0 1 0 -15 0zM1137.89 494.9 a7.5 7.5 0 1 0 15 0 a7.5 7.5 0 1 0 -15 0zM1202.85 532.4 a7.5 7.5 0 1 0 15 0 a7.5 7.5 0 1 0 -15 0zM1202.85 607.4 a7.5 7.5 0 1 0 15 0 a7.5 7.5 0 1 0 -15 0zM1137.89 644.9 a7.5 7.5 0 1 0 15 0 a7.5 7.5 0 1 0 -15 0zM1267.8 44.9 a7.5 7.5 0 1 0 15 0 a7.5 7.5 0 1 0 -15 0zM1332.75 82.4 a7.5 7.5 0 1 0 15 0 a7.5 7.5 0 1 0 -15 0zM1332.75 157.4 a7.5 7.5 0 1 0 15 0 a7.5 7.5 0 1 0 -15 0zM1267.8 194.9 a7.5 7.5 0 1 0 15 0 a7.5 7.5 0 1 0 -15 0zM1267.8 269.9 a7.5 7.5 0 1 0 15 0 a7.5 7.5 0 1 0 -15 0zM1267.8 419.9 a7.5 7.5 0 1 0 15 0 a7.5 7.5 0 1 0 -15 0zM1267.8 494.9 a7.5 7.5 0 1 0 15 0 a7.5 7.5 0 1 0 -15 0zM1332.76 382.4 a7.5 7.5 0 1 0 15 0 a7.5 7.5 0 1 0 -15 0zM1397.71 419.9 a7.5 7.5 0 1 0 15 0 a7.5 7.5 0 1 0 -15 0zM1397.71 494.9 a7.5 7.5 0 1 0 15 0 a7.5 7.5 0 1 0 -15 0zM1332.76 532.4 a7.5 7.5 0 1 0 15 0 a7.5 7.5 0 1 0 -15 0zM1462.66 -67.6 a7.5 7.5 0 1 0 15 0 a7.5 7.5 0 1 0 -15 0zM1527.62 -30.1 a7.5 7.5 0 1 0 15 0 a7.5 7.5 0 1 0 -15 0zM1527.62 44.9 a7.5 7.5 0 1 0 15 0 a7.5 7.5 0 1 0 -15 0zM1462.66 82.4 a7.5 7.5 0 1 0 15 0 a7.5 7.5 0 1 0 -15 0zM1397.71 44.9 a7.5 7.5 0 1 0 15 0 a7.5 7.5 0 1 0 -15 0zM1397.71 -30.1 a7.5 7.5 0 1 0 15 0 a7.5 7.5 0 1 0 -15 0zM1592.57 82.4 a7.5 7.5 0 1 0 15 0 a7.5 7.5 0 1 0 -15 0zM1592.57 157.4 a7.5 7.5 0 1 0 15 0 a7.5 7.5 0 1 0 -15 0zM1527.62 194.9 a7.5 7.5 0 1 0 15 0 a7.5 7.5 0 1 0 -15 0zM1462.66 157.4 a7.5 7.5 0 1 0 15 0 a7.5 7.5 0 1 0 -15 0zM1527.62 494.9 a7.5 7.5 0 1 0 15 0 a7.5 7.5 0 1 0 -15 0zM1592.57 532.4 a7.5 7.5 0 1 0 15 0 a7.5 7.5 0 1 0 -15 0zM1592.57 607.4 a7.5 7.5 0 1 0 15 0 a7.5 7.5 0 1 0 -15 0zM1527.62 644.9 a7.5 7.5 0 1 0 15 0 a7.5 7.5 0 1 0 -15 0zM1462.66 607.4 a7.5 7.5 0 1 0 15 0 a7.5 7.5 0 1 0 -15 0zM1462.66 532.4 a7.5 7.5 0 1 0 15 0 a7.5 7.5 0 1 0 -15 0z" fill="#03305d"></path><path d="M19.35 104.52L62.65 129.52L62.65 179.52L19.35 204.52L-23.95 179.52L-23.95 129.52zM62.65 179.52L105.96 204.52L105.96 254.52L62.65 279.52L19.35 254.52L19.35 204.52zM62.65 329.52L105.96 354.52L105.96 404.52L62.65 429.52L19.35 404.52L19.35 354.52zM19.35 404.52L62.65 429.52L62.65 479.52L19.35 504.52L-23.95 479.52L-23.95 429.52zM62.65 479.52L105.96 504.52L105.96 554.52L62.65 579.52L19.35 554.52L19.35 504.52zM149.26 29.52L192.56 54.52L192.56 104.52L149.26 129.52L105.96 104.52L105.96 54.52zM105.96 104.52L149.26 129.52L149.26 179.52L105.96 204.52L62.65 179.52L62.65 129.52zM149.26 179.52L192.56 204.52L192.56 254.52L149.26 279.52L105.96 254.52L105.96 204.52zM149.26 479.52L192.56 504.52L192.56 554.52L149.26 579.52L105.96 554.52L105.96 504.52zM192.56 -45.48L235.86 -20.48L235.86 29.52L192.56 54.52L149.26 29.52L149.26 -20.48zM235.86 29.52L279.17 54.52L279.17 104.52L235.86 129.52L192.56 104.52L192.56 54.52zM235.86 479.52L279.17 504.52L279.17 554.52L235.86 579.52L192.56 554.52L192.56 504.52zM279.17 404.52L322.47 429.52L322.47 479.52L279.17 504.52L235.86 479.52L235.86 429.52zM322.47 479.52L365.77 504.52L365.77 554.52L322.47 579.52L279.17 554.52L279.17 504.52zM365.77 -45.48L409.07 -20.48L409.07 29.52L365.77 54.52L322.47 29.52L322.47 -20.48zM365.77 254.52L409.07 279.52L409.07 329.52L365.77 354.52L322.47 329.52L322.47 279.52zM409.07 329.52L452.38 354.52L452.38 404.52L409.07 429.52L365.77 404.52L365.77 354.52zM365.77 404.52L409.07 429.52L409.07 479.52L365.77 504.52L322.47 479.52L322.47 429.52zM495.68 179.52L538.98 204.52L538.98 254.52L495.68 279.52L452.38 254.52L452.38 204.52zM538.98 -45.48L582.28 -20.48L582.28 29.52L538.98 54.52L495.68 29.52L495.68 -20.48zM582.28 329.52L625.59 354.52L625.59 404.52L582.28 429.52L538.98 404.52L538.98 354.52zM538.98 404.52L582.28 429.52L582.28 479.52L538.98 504.52L495.68 479.52L495.68 429.52zM668.89 29.52L712.19 54.52L712.19 104.52L668.89 129.52L625.59 104.52L625.59 54.52zM625.59 104.52L668.89 129.52L668.89 179.52L625.59 204.52L582.28 179.52L582.28 129.52zM668.89 329.52L712.19 354.52L712.19 404.52L668.89 429.52L625.59 404.52L625.59 354.52zM625.59 404.52L668.89 429.52L668.89 479.52L625.59 504.52L582.28 479.52L582.28 429.52zM712.19 -45.48L755.49 -20.48L755.49 29.52L712.19 54.52L668.89 29.52L668.89 -20.48zM712.19 104.52L755.49 129.52L755.49 179.52L712.19 204.52L668.89 179.52L668.89 129.52zM755.49 479.52L798.8 504.52L798.8 554.52L755.49 579.52L712.19 554.52L712.19 504.52zM798.8 -45.48L842.1 -20.48L842.1 29.52L798.8 54.52L755.49 29.52L755.49 -20.48zM798.8 104.52L842.1 129.52L842.1 179.52L798.8 204.52L755.49 179.52L755.49 129.52zM798.8 254.52L842.1 279.52L842.1 329.52L798.8 354.52L755.49 329.52L755.49 279.52zM842.1 479.52L885.4 504.52L885.4 554.52L842.1 579.52L798.8 554.52L798.8 504.52zM885.4 -45.48L928.7 -20.48L928.7 29.52L885.4 54.52L842.1 29.52L842.1 -20.48zM928.7 29.52L972.01 54.52L972.01 104.52L928.7 129.52L885.4 104.52L885.4 54.52zM885.4 104.52L928.7 129.52L928.7 179.52L885.4 204.52L842.1 179.52L842.1 129.52zM885.4 254.52L928.7 279.52L928.7 329.52L885.4 354.52L842.1 329.52L842.1 279.52zM928.7 479.52L972.01 504.52L972.01 554.52L928.7 579.52L885.4 554.52L885.4 504.52zM972.01 104.52L1015.31 129.52L1015.31 179.52L972.01 204.52L928.7 179.52L928.7 129.52zM1015.31 179.52L1058.61 204.52L1058.61 254.52L1015.31 279.52L972.01 254.52L972.01 204.52zM1015.31 329.52L1058.61 354.52L1058.61 404.52L1015.31 429.52L972.01 404.52L972.01 354.52zM972.01 404.52L1015.31 429.52L1015.31 479.52L972.01 504.52L928.7 479.52L928.7 429.52zM1058.61 -45.48L1101.91 -20.48L1101.91 29.52L1058.61 54.52L1015.31 29.52L1015.31 -20.48zM1101.91 29.52L1145.21 54.52L1145.21 104.52L1101.91 129.52L1058.61 104.52L1058.61 54.52zM1101.91 179.52L1145.21 204.52L1145.21 254.52L1101.91 279.52L1058.61 254.52L1058.61 204.52zM1101.91 329.52L1145.21 354.52L1145.21 404.52L1101.91 429.52L1058.61 404.52L1058.61 354.52zM1058.61 404.52L1101.91 429.52L1101.91 479.52L1058.61 504.52L1015.31 479.52L1015.31 429.52zM1101.91 479.52L1145.21 504.52L1145.21 554.52L1101.91 579.52L1058.61 554.52L1058.61 504.52zM1145.21 104.52L1188.52 129.52L1188.52 179.52L1145.21 204.52L1101.91 179.52L1101.91 129.52zM1145.21 254.52L1188.52 279.52L1188.52 329.52L1145.21 354.52L1101.91 329.52L1101.91 279.52zM1145.21 404.52L1188.52 429.52L1188.52 479.52L1145.21 504.52L1101.91 479.52L1101.91 429.52zM1188.52 479.52L1231.82 504.52L1231.82 554.52L1188.52 579.52L1145.21 554.52L1145.21 504.52zM1231.82 -45.48L1275.12 -20.48L1275.12 29.52L1231.82 54.52L1188.52 29.52L1188.52 -20.48zM1275.12 179.52L1318.42 204.52L1318.42 254.52L1275.12 279.52L1231.82 254.52L1231.82 204.52zM1275.12 479.52L1318.42 504.52L1318.42 554.52L1275.12 579.52L1231.82 554.52L1231.82 504.52zM1318.42 104.52L1361.73 129.52L1361.73 179.52L1318.42 204.52L1275.12 179.52L1275.12 129.52zM1318.42 254.52L1361.73 279.52L1361.73 329.52L1318.42 354.52L1275.12 329.52L1275.12 279.52zM1318.42 404.52L1361.73 429.52L1361.73 479.52L1318.42 504.52L1275.12 479.52L1275.12 429.52zM1448.33 29.52L1491.63 54.52L1491.63 104.52L1448.33 129.52L1405.03 104.52L1405.03 54.52zM1448.33 179.52L1491.63 204.52L1491.63 254.52L1448.33 279.52L1405.03 254.52L1405.03 204.52zM1448.33 329.52L1491.63 354.52L1491.63 404.52L1448.33 429.52L1405.03 404.52L1405.03 354.52zM1405.03 404.52L1448.33 429.52L1448.33 479.52L1405.03 504.52L1361.73 479.52L1361.73 429.52z" stroke="rgba(6, 80, 156, 0.93)" stroke-width="2"></path></g><defs><mask id="SvgjsMask1001"><rect width="1440" height="560" fill="#ffffff"></rect></mask></defs></svg>